<svg width="32" height="29" viewBox="0 0 32 29" fill="none" xmlns="http://www.w3.org/2000/svg">
<path d="M30.4457 20.6762H9.51015L10.5613 18.5352L28.0269 18.5035C28.6176 18.5035 29.1238 18.0816 29.2293 17.498L31.648 3.95938C31.7113 3.6043 31.6164 3.23867 31.3844 2.96094C31.2697 2.82425 31.1267 2.71415 30.9652 2.63826C30.8037 2.56238 30.6276 2.52253 30.4492 2.52148L8.23046 2.44766L8.04062 1.55469C7.92108 0.985156 7.4078 0.570312 6.82421 0.570312H1.39257C1.06343 0.570313 0.747771 0.701062 0.515035 0.933797C0.2823 1.16653 0.15155 1.48219 0.15155 1.81133C0.15155 2.14047 0.2823 2.45612 0.515035 2.68886C0.747771 2.92159 1.06343 3.05234 1.39257 3.05234H5.81874L6.64843 6.99688L8.69101 16.8863L6.06132 21.1789C5.92475 21.3632 5.8425 21.5821 5.82386 21.8107C5.80522 22.0394 5.85094 22.2687 5.95585 22.4727C6.16679 22.891 6.59218 23.1547 7.06327 23.1547H9.27108C8.80041 23.7798 8.54618 24.5413 8.54687 25.3238C8.54687 27.3137 10.1641 28.9309 12.1539 28.9309C14.1437 28.9309 15.7609 27.3137 15.7609 25.3238C15.7609 24.5398 15.5008 23.777 15.0367 23.1547H20.7004C20.2297 23.7798 19.9755 24.5413 19.9762 25.3238C19.9762 27.3137 21.5934 28.9309 23.5832 28.9309C25.573 28.9309 27.1902 27.3137 27.1902 25.3238C27.1902 24.5398 26.9301 23.777 26.466 23.1547H30.4492C31.1312 23.1547 31.6902 22.5992 31.6902 21.9137C31.6882 21.5849 31.5562 21.2702 31.323 21.0384C31.0899 20.8066 30.7745 20.6764 30.4457 20.6762ZM8.74726 4.89453L28.9902 4.96133L27.0074 16.0637L11.1062 16.0918L8.74726 4.89453ZM12.1539 26.4348C11.5422 26.4348 11.043 25.9355 11.043 25.3238C11.043 24.7121 11.5422 24.2129 12.1539 24.2129C12.7656 24.2129 13.2648 24.7121 13.2648 25.3238C13.2648 25.6185 13.1478 25.901 12.9394 26.1094C12.7311 26.3177 12.4485 26.4348 12.1539 26.4348ZM23.5832 26.4348C22.9715 26.4348 22.4723 25.9355 22.4723 25.3238C22.4723 24.7121 22.9715 24.2129 23.5832 24.2129C24.1949 24.2129 24.6941 24.7121 24.6941 25.3238C24.6941 25.6185 24.5771 25.901 24.3687 26.1094C24.1604 26.3177 23.8778 26.4348 23.5832 26.4348Z" fill="black"/>
</svg>
